<?xml version="1.0" encoding="UTF-8" standalone="no"?>
<svg
   xmlns:dc="http://purl.org/dc/elements/1.1/"
   xmlns:cc="http://creativecommons.org/ns#"
   xmlns:rdf="http://www.w3.org/1999/02/22-rdf-syntax-ns#"
   xmlns:svg="http://www.w3.org/2000/svg"
   xmlns="http://www.w3.org/2000/svg"
   xmlns:sodipodi="http://sodipodi.sourceforge.net/DTD/sodipodi-0.dtd"
   xmlns:inkscape="http://www.inkscape.org/namespaces/inkscape"
   version="1.1"
   x="0px"
   y="0px"
   width="128"
   height="128"
   viewBox="0, 0, 128, 128"
   id="svg50"
   sodipodi:docname="disabled.svg"
   inkscape:version="0.92.3 (2405546, 2018-03-11)">
  <metadata
     id="metadata54">
    <rdf:RDF>
      <cc:Work
         rdf:about="">
        <dc:format>image/svg+xml</dc:format>
        <dc:type
           rdf:resource="http://purl.org/dc/dcmitype/StillImage" />
        <dc:title></dc:title>
      </cc:Work>
    </rdf:RDF>
  </metadata>
  <sodipodi:namedview
     pagecolor="#ffffff"
     bordercolor="#666666"
     borderopacity="1"
     objecttolerance="10"
     gridtolerance="10"
     guidetolerance="10"
     inkscape:pageopacity="0"
     inkscape:pageshadow="2"
     inkscape:window-width="1600"
     inkscape:window-height="837"
     id="namedview52"
     showgrid="false"
     inkscape:zoom="5.039"
     inkscape:cx="31.17"
     inkscape:cy="69.89"
     inkscape:window-x="-9"
     inkscape:window-y="-9"
     inkscape:window-maximized="1"
     inkscape:current-layer="g46" />
  <g
     id="Background">
    <rect
       x="0"
       y="0"
       width="128"
       height="128"
       fill="#000000"
       fill-opacity="0"
       id="rect33" />
  </g>
  <g
     id="g46">
    <path
       d="M18.092,6 L109.903,6 C116.552,6 122,11.441 122,18.096 L122,109.902 C122,116.559 116.552,122 109.903,122 L18.092,122 C11.436,122 6,116.559 6,109.902 L6,18.096 C6,11.441 11.436,6 18.092,6"
       id="path36"
       fill="#737370" />
    <path
       inkscape:connector-curvature="0"
       d="m 19.97,35.81 l 21.08,-13.51 l 21.02,13.51 l -21.02,13.4 z"
       style="overflow:hidden;fill:#82d1f5;stroke:#82d1f5;stroke-width:2.803px;stroke-linejoin:round;fill-opacity:1"
       id="path96" />
    <path
       inkscape:connector-curvature="0"
       d="m 67.64,35.81 l 21.05,-13.51 l 21.01,13.51 l -21.01,13.4 z"
       style="overflow:hidden;fill:#82d1f5;stroke:#82d1f5;stroke-width:2.803px;stroke-linejoin:round"
       id="path98" />
    <path
       inkscape:connector-curvature="0"
       d="m 67.64,41.81 l 18.94,12.13 v 18.84 l -18.94,-12.12 z"
       style="overflow:hidden;fill:#82d1f5;stroke:#82d1f5;stroke-width:2.803px;stroke-linejoin:round"
       id="path100" />
    <path
       inkscape:connector-curvature="0"
       d="m 109.7,41.81 l -18.92,12.13 v 18.84 l 18.92,-12.12 z"
       style="overflow:hidden;fill:#82d1f5;stroke:#82d1f5;stroke-width:2.803px;stroke-linejoin:round"
       id="path102" />
    <path
       inkscape:connector-curvature="0"
       d="m 19.97,67.78 l 21.08,-13.4 l 21.02,13.4 l -21.02,13.52 z"
       style="overflow:hidden;fill:#82d1f5;stroke:#82d1f5;stroke-width:2.803px;stroke-linejoin:round"
       id="path104" />
    <path
       inkscape:connector-curvature="0"
       d="m 67.64,92.49 l 21.05,-13.53 l 21.01,13.53 l -21.01,13.41 z"
       style="overflow:hidden;fill:#ffffff;stroke:#ffffff;stroke-width:2.803px;stroke-linejoin:round"
       id="path106" />
    <path
       inkscape:connector-curvature="0"
       d="m 19.97,73.9 l 18.97,12.06 v 18.84 l -18.97,-12.01 z"
       style="overflow:hidden;fill:#82d1f5;stroke:#82d1f5;stroke-width:2.803px;stroke-linejoin:round"
       id="path108" />
    <path
       inkscape:connector-curvature="0"
       d="m 62.07,73.9 l -18.9,12.06 v 18.84 l 18.9,-12.01 z"
       style="overflow:hidden;fill:#82d1f5;stroke:#82d1f5;stroke-width:2.803px;stroke-linejoin:round"
       id="path110" />
    <path
       inkscape:connector-curvature="0"
       d="m 19.97,41.81 v 21.02 l 16.42,-10.5 z"
       style="overflow:hidden;fill:#82d1f5;stroke:#82d1f5;stroke-width:2.803px;stroke-linejoin:round"
       id="path112" />
    <path
       style="fill:#ffffff;fill-opacity:1;stroke-width:0.1985"
       d="m 39.11,49.54 c -12.18,-7.66 -20.13,-12.82 -20.29,-13.19 c -0.49,-1.07 -0.48,-1.08 10.81,-8.32 c 5.92,-3.8 11.01,-6.94 11.28,-6.99 c 0.42,-0.1 2.7,1.32 11.12,6.72 c 5.83,3.74 10.75,6.93 10.93,7.1 c 0.22,0.17 0.36,0.57 0.36,0.94 c 0,0.51 -0.14,0.77 -0.64,1.14 c -1.4,1.06 -21.11,13.51 -21.49,13.57 c -0.24,0.1 -1.07,-0.34 -2.08,-0.97 z"
       id="path201"
       inkscape:connector-curvature="0" />
    <path
       style="fill:#ffffff;fill-opacity:1;stroke-width:0.1985"
       d="m 86.02,49.08 c -1.3,-0.81 -6.2,-3.93 -10.89,-6.93 c -8.97,-5.71 -9.21,-5.9 -8.66,-6.91 c 0.31,-0.55 21.42,-14.12 22.11,-14.2 c 0.38,-0.1 3.22,1.67 11.1,6.73 c 5.82,3.73 10.72,6.92 10.92,7.09 c 0.4,0.38 0.4,1.47 0,1.87 c -0.7,0.66 -21.58,13.84 -21.88,13.84 c -0.18,0 -1.39,-0.68 -2.7,-1.49 z"
       id="path203"
       inkscape:connector-curvature="0" />
    <path
       style="fill:#ffffff;fill-opacity:1;stroke-width:0.1985"
       d="m 19,63.71 c -0.3,-0.34 -0.33,-1.41 -0.33,-11.41 c 0,-9.76 0,-11.07 0.31,-11.34 c 0.83,-0.83 0.86,-0.82 9.56,4.75 c 4.55,2.92 8.49,5.49 8.73,5.71 c 0.57,0.52 0.57,1.23 0,1.79 c -0.24,0.24 -4.12,2.78 -8.6,5.65 c -8.49,5.42 -8.95,5.64 -9.67,4.85 z"
       id="path205"
       inkscape:connector-curvature="0" />
    <path
       style="fill:#ffffff;fill-opacity:1;stroke-width:0.1985"
       d="m 30.38,76.05 c -12.45,-7.99 -11.71,-7.47 -11.71,-8.17 c 0,-0.31 0.11,-0.71 0.25,-0.88 c 0.13,-0.17 5.05,-3.36 10.92,-7.08 c 7.31,-4.64 10.84,-6.77 11.21,-6.77 c 0.38,0 3.93,2.15 11.35,6.89 c 10.76,6.86 10.82,6.91 10.88,7.61 c 0,0.48 -0.1,0.8 -0.3,1.03 c -0.2,0.18 -5.08,3.37 -10.85,7.07 c -8.18,5.28 -10.64,6.77 -11.12,6.75 c -0.45,0 -3.19,-1.67 -10.63,-6.45 z"
       id="path207"
       inkscape:connector-curvature="0" />
    <path
       style="fill:#ffffff;fill-opacity:1;stroke-width:0.1985"
       d="m 85.94,73.91 c -1.36,-0.72 -19,-12.11 -19.3,-12.47 c -0.32,-0.37 -0.34,-1.15 -0.34,-10.21 v -9.81 l 0.5,-0.51 c 0.33,-0.32 0.67,-0.47 0.95,-0.42 c 0.57,0.11 19.15,11.97 19.72,12.6 l 0.46,0.48 v 9.78 c 0,9.05 0,9.82 -0.36,10.2 c -0.48,0.56 -1.03,0.67 -1.63,0.36 z"
       id="path209"
       inkscape:connector-curvature="0" />
    <path
       style="fill:#ffffff;fill-opacity:1;stroke-width:0.1985"
       d="m 90.04,73.77 l -0.53,-0.4 v -9.96 c 0,-5.48 0.1,-10.07 0.15,-10.19 c 0.13,-0.21 16.94,-11.08 18.94,-12.26 c 1.1,-0.62 1.4,-0.64 2,-0.12 c 0.3,0.39 0.3,0.66 0.3,10.37 c 0,5.49 0,10.08 -0.1,10.19 c -0.2,0.32 -19.3,12.51 -19.82,12.67 c -0.27,0.1 -0.61,0 -0.95,-0.3 z"
       id="path211"
       inkscape:connector-curvature="0" />
    <path
       style="fill:#ffffff;fill-opacity:1;stroke-width:0.1985"
       d="m 42.3,105.8 c -0.41,-0.5 -0.41,-0.6 -0.41,-10.46 v -10.02 l 0.64,-0.48 c 1.9,-1.42 18.98,-12.13 19.46,-12.21 c 0.34,0 0.69,0.1 0.93,0.27 c 0.38,0.34 0.4,0.67 0.4,10.41 v 10.06 l -0.46,0.4 c -0.87,0.8 -19.1,12.23 -19.61,12.33 c -0.36,0.1 -0.67,-0.1 -0.95,-0.3 z"
       id="path213"
       inkscape:connector-curvature="0" />
    <path
       style="fill:#ffffff;fill-opacity:1;stroke-width:0.1985"
       d="m 37.92,105.7 c -2.22,-1.3 -18.07,-11.41 -18.61,-11.81 l -0.64,-0.48 v -10.01 c 0,-9.74 0,-10.02 0.39,-10.41 c 0.22,-0.21 0.61,-0.39 0.87,-0.39 c 0.49,0 19.67,12.05 20.11,12.65 c 0.2,0.25 0.26,2.58 0.26,10.09 c 0,9.56 0,9.76 -0.42,10.26 c -0.49,0.7 -1.03,0.7 -1.96,0.1 z"
       id="path215"
       inkscape:connector-curvature="0" />
  </g>
  <defs
     id="defs48" />
</svg>
