<?xml version="1.0" encoding="UTF-8" standalone="no"?>
<svg
   xmlns:dc="http://purl.org/dc/elements/1.1/"
   xmlns:cc="http://creativecommons.org/ns#"
   xmlns:rdf="http://www.w3.org/1999/02/22-rdf-syntax-ns#"
   xmlns:svg="http://www.w3.org/2000/svg"
   xmlns="http://www.w3.org/2000/svg"
   xmlns:sodipodi="http://sodipodi.sourceforge.net/DTD/sodipodi-0.dtd"
   xmlns:inkscape="http://www.inkscape.org/namespaces/inkscape"
   version="1.1"
   x="0px"
   y="0px"
   width="128"
   height="128"
   viewBox="0, 0, 128, 128"
   id="svg50"
   sodipodi:docname="enabled.svg"
   inkscape:version="0.92.3 (2405546, 2018-03-11)">
  <metadata
     id="metadata54">
    <rdf:RDF>
      <cc:Work
         rdf:about="">
        <dc:format>image/svg+xml</dc:format>
        <dc:type
           rdf:resource="http://purl.org/dc/dcmitype/StillImage" />
        <dc:title></dc:title>
      </cc:Work>
    </rdf:RDF>
  </metadata>
  <sodipodi:namedview
     pagecolor="#ffffff"
     bordercolor="#666666"
     borderopacity="1"
     objecttolerance="10"
     gridtolerance="10"
     guidetolerance="10"
     inkscape:pageopacity="0"
     inkscape:pageshadow="2"
     inkscape:window-width="1600"
     inkscape:window-height="837"
     id="namedview52"
     showgrid="false"
     inkscape:zoom="5.039"
     inkscape:cx="31.17"
     inkscape:cy="69.89"
     inkscape:window-x="-9"
     inkscape:window-y="-9"
     inkscape:window-maximized="1"
     inkscape:current-layer="g46" />
  <g
     id="Background">
    <rect
       x="0"
       y="0"
       width="128"
       height="128"
       fill="#000000"
       fill-opacity="0"
       id="rect33" />
  </g>
  <g
     id="g46">
    <path
       d="M18.092,6 L109.903,6 C116.552,6 122,11.441 122,18.096 L122,109.902 C122,116.559 116.552,122 109.903,122 L18.092,122 C11.436,122 6,116.559 6,109.902 L6,18.096 C6,11.441 11.436,6 18.092,6"
       id="path36"
       fill="#737370" />
    <path
       inkscape:connector-curvature="0"
       d="m 19.97,35.81 l 21.08,-13.51 l 21.02,13.51 l -21.02,13.4 z"
       style="overflow:hidden;fill:#82d1f5;stroke:#82d1f5;stroke-width:2.803px;stroke-linejoin:round"
       id="path96" />
    <path
       inkscape:connector-curvature="0"
       d="m 67.64,35.81 l 21.05,-13.51 l 21.01,13.51 l -21.01,13.4 z"
       style="overflow:hidden;fill:#82d1f5;stroke:#82d1f5;stroke-width:2.803px;stroke-linejoin:round"
       id="path98" />
    <path
       inkscape:connector-curvature="0"
       d="m 67.64,41.81 l 18.94,12.13 v 18.84 l -18.94,-12.12 z"
       style="overflow:hidden;fill:#82d1f5;stroke:#82d1f5;stroke-width:2.803px;stroke-linejoin:round"
       id="path100" />
    <path
       inkscape:connector-curvature="0"
       d="m 109.7,41.81 l -18.92,12.13 v 18.84 l 18.92,-12.12 z"
       style="overflow:hidden;fill:#82d1f5;stroke:#82d1f5;stroke-width:2.803px;stroke-linejoin:round"
       id="path102" />
    <path
       inkscape:connector-curvature="0"
       d="m 19.97,67.78 l 21.08,-13.4 l 21.02,13.4 l -21.02,13.52 z"
       style="overflow:hidden;fill:#82d1f5;stroke:#82d1f5;stroke-width:2.803px;stroke-linejoin:round"
       id="path104" />
    <path
       inkscape:connector-curvature="0"
       d="m 67.64,92.49 l 21.05,-13.53 l 21.01,13.53 l -21.01,13.41 z"
       style="overflow:hidden;fill:#ffffff;stroke:#ffffff;stroke-width:2.803px;stroke-linejoin:round"
       id="path106" />
    <path
       inkscape:connector-curvature="0"
       d="m 19.97,73.9 l 18.97,12.06 v 18.84 l -18.97,-12.01 z"
       style="overflow:hidden;fill:#82d1f5;stroke:#82d1f5;stroke-width:2.803px;stroke-linejoin:round"
       id="path108" />
    <path
       inkscape:connector-curvature="0"
       d="m 62.07,73.9 l -18.9,12.06 v 18.84 l 18.9,-12.01 z"
       style="overflow:hidden;fill:#82d1f5;stroke:#82d1f5;stroke-width:2.803px;stroke-linejoin:round"
       id="path110" />
    <path
       inkscape:connector-curvature="0"
       d="m 19.97,41.81 v 21.02 l 16.42,-10.5 z"
       style="overflow:hidden;fill:#82d1f5;stroke:#82d1f5;stroke-width:2.803px;stroke-linejoin:round"
       id="path112" />
  </g>
  <defs
     id="defs48" />
</svg>
